<svg width="40" height="40" id="Слой_1" data-name="Слой 1" xmlns="http://www.w3.org/2000/svg" viewBox="0 0 19.69 24.82"><defs><style>.cls-1{fill:#fab41a;}.cls-2{fill:none;stroke:#fab41a;stroke-miterlimit:10;stroke-width:0.46px;}</style></defs><path class="cls-1" d="M26.4,16.47s0,0,0,0l.11-.24c.24-.64.49-1.27.73-1.91a.09.09,0,0,0,0-.11l-.08-.13a4.7,4.7,0,0,1-.62-2,5.08,5.08,0,0,1,.06-1.23,4.45,4.45,0,0,1,.34-1.07,4.61,4.61,0,0,1,1.3-1.7,4.51,4.51,0,0,1,1.35-.77,4.36,4.36,0,0,1,1.19-.26l.16,0h.54c.12,0,.24,0,.36,0a4.68,4.68,0,0,1,.84.2,4.76,4.76,0,0,1,1.69,1,4.88,4.88,0,0,1,.89,1.13,4.66,4.66,0,0,1,.56,1.71l0,.27V12s0,0,0,.05,0,.23,0,.35a4.29,4.29,0,0,1-.34,1.16,4.63,4.63,0,0,1-2.12,2.27,4.43,4.43,0,0,1-1.81.51,4.34,4.34,0,0,1-1.3-.09,4.62,4.62,0,0,1-1.48-.58.06.06,0,0,0-.07,0l-2,.71Zm.55-.55.34-.12,1.37-.49a.12.12,0,0,1,.13,0,4.19,4.19,0,0,0,1.84.68,4.13,4.13,0,0,0,1.11,0,4.23,4.23,0,0,0,1-.25,4.37,4.37,0,0,0,2.71-3.36,4.1,4.1,0,0,0,0-1.26,4.34,4.34,0,0,0-.21-.88A4.31,4.31,0,0,0,33,7.79a4,4,0,0,0-1.56-.41,4.11,4.11,0,0,0-1,0,4,4,0,0,0-1.17.36,4.25,4.25,0,0,0-1.44,1.12,4.31,4.31,0,0,0-1,2.63,4.89,4.89,0,0,0,.12,1.2,4.44,4.44,0,0,0,.64,1.42.06.06,0,0,1,0,.07l-.54,1.39Z" transform="translate(-16.13 -7.04)"/><path class="cls-1" d="M30.39,11.14a7.25,7.25,0,0,0,.81.85,2.42,2.42,0,0,0,.6.35s0,0,.06,0a1.55,1.55,0,0,1,.39-.28,1,1,0,0,1,.22-.08.44.44,0,0,1,.38.12c.19.17.36.35.54.53l.17.19a.21.21,0,0,1,0,.2.88.88,0,0,1-.2.41,1.55,1.55,0,0,1-.83.57,1,1,0,0,1-.6,0,4.83,4.83,0,0,1-1.26-.64,4.08,4.08,0,0,1-.78-.66,6.7,6.7,0,0,1-.59-.81,4.83,4.83,0,0,1-.41-.86,1.37,1.37,0,0,1-.09-.57,1.37,1.37,0,0,1,.21-.55,1.5,1.5,0,0,1,.56-.53.67.67,0,0,1,.34-.1l.05,0a6.56,6.56,0,0,1,.76.73.47.47,0,0,1,.08.53,2.15,2.15,0,0,1-.42.58Zm2,2.55h.08a1.23,1.23,0,0,0,.62-.34,1.09,1.09,0,0,0,.23-.32s0,0,0-.06l-.11-.13c-.16-.16-.32-.33-.49-.49a.15.15,0,0,0-.2,0,1,1,0,0,0-.17.1L32,12.7l-.05,0a2.49,2.49,0,0,1-1-.56,6.29,6.29,0,0,1-.74-.81.57.57,0,0,1-.15-.26A.08.08,0,0,1,30,11l.25-.25a1.51,1.51,0,0,0,.27-.39.14.14,0,0,0,0-.2l-.57-.56c-.07-.07-.07-.07-.15,0a1.27,1.27,0,0,0-.53.57.72.72,0,0,0-.07.48c0,.14.08.27.13.4a5.32,5.32,0,0,0,.53.93,3.51,3.51,0,0,0,.55.66,5.19,5.19,0,0,0,1.51.92A1.3,1.3,0,0,0,32.34,13.69Z" transform="translate(-16.13 -7.04)"/><rect class="cls-2" x="0.23" y="7.84" width="8.74" height="16.75" rx="1.41"/><path class="cls-2" d="M18.24,15.12s-.11.83.48.83h4c.6,0,.48-.83.48-.83" transform="translate(-16.13 -7.04)"/></svg>