<svg width="30" height="30" id="Слой_1" data-name="Слой 1" xmlns="http://www.w3.org/2000/svg" viewBox="0 0 38.26 71.62"><defs><style>.cls-1{fill:#ffb400;}.cls-2{fill:none;stroke:#ffb400;stroke-miterlimit:10;stroke-width:1.91px;}</style></defs><path class="cls-1" d="M75.77,89.89c-.1,0-.06-.06-.06-.1.1-.25.21-.5.31-.76l2.27-5.87a.32.32,0,0,0,0-.35,3.89,3.89,0,0,1-.25-.4,14.3,14.3,0,0,1-1.89-6,14.08,14.08,0,0,1,.18-3.78,13.89,13.89,0,0,1,1-3.32,14.43,14.43,0,0,1,4-5.22,13.93,13.93,0,0,1,4.17-2.38,13.63,13.63,0,0,1,3.68-.82c.16,0,.32,0,.48-.06h1.51l.17,0c.37,0,.74.06,1.1.11a14.68,14.68,0,0,1,2.6.62,14.37,14.37,0,0,1,9.66,11.85c0,.28.07.55.1.83v1.9l0,.13c0,.36-.08.72-.13,1.08a13.68,13.68,0,0,1-1,3.59,14.29,14.29,0,0,1-6.54,7,14,14,0,0,1-5.58,1.58,14.29,14.29,0,0,1-4-.27,14.58,14.58,0,0,1-4.53-1.81.31.31,0,0,0-.23,0l-6.21,2.21C76.24,89.69,76,89.79,75.77,89.89Zm1.68-1.71,1-.38,4.23-1.51a.4.4,0,0,1,.41,0,13.14,13.14,0,0,0,9.09,2.06,13,13,0,0,0,3.06-.79,13.35,13.35,0,0,0,8.33-10.33,13.53,13.53,0,0,0-.62-6.62,13.38,13.38,0,0,0-11.66-8.81,13,13,0,0,0-3,.15,13.35,13.35,0,0,0-8.85,20.75.2.2,0,0,1,0,.21l-1.65,4.29C77.69,87.54,77.58,87.84,77.45,88.18Z" transform="translate(-70.87 -39.69)"/><path class="cls-1" d="M88.06,73.45a20.64,20.64,0,0,0,2.49,2.62,7.1,7.1,0,0,0,1.85,1.06.17.17,0,0,0,.2,0,4.66,4.66,0,0,1,1.18-.88,2.5,2.5,0,0,1,.7-.23,1.39,1.39,0,0,1,1.17.35c.56.53,1.1,1.08,1.64,1.63.19.19.34.41.53.59a.63.63,0,0,1,.16.62,2.82,2.82,0,0,1-.61,1.28,4.93,4.93,0,0,1-2.57,1.75A3.17,3.17,0,0,1,93,82.13a15,15,0,0,1-3.89-2,11.91,11.91,0,0,1-2.4-2,17.35,17.35,0,0,1-1.82-2.52A13.69,13.69,0,0,1,83.58,73a4,4,0,0,1-.27-1.74A4,4,0,0,1,84,69.55a4.88,4.88,0,0,1,1.72-1.66,2.08,2.08,0,0,1,1.06-.28.21.21,0,0,1,.15,0,21.85,21.85,0,0,1,2.36,2.25,1.45,1.45,0,0,1,.23,1.62,6.11,6.11,0,0,1-1.28,1.79Zm6,7.84.25,0a3.65,3.65,0,0,0,1.89-1,3.16,3.16,0,0,0,.71-1,.17.17,0,0,0,0-.21c-.12-.12-.22-.25-.34-.37L95,77.14a.53.53,0,0,0-.64-.08,3.1,3.1,0,0,0-.5.29c-.34.29-.66.6-1,.9a.23.23,0,0,1-.17.07,8.12,8.12,0,0,1-3.15-1.73,21.42,21.42,0,0,1-2.28-2.48,1.84,1.84,0,0,1-.44-.81.2.2,0,0,1,0-.17c.25-.26.52-.51.77-.77a5.17,5.17,0,0,0,.84-1.18.5.5,0,0,0-.09-.64c-.59-.58-1.18-1.16-1.78-1.73-.2-.19-.21-.19-.45,0a3.94,3.94,0,0,0-1.62,1.76A2,2,0,0,0,84.37,72a9,9,0,0,0,.4,1.24,14.94,14.94,0,0,0,1.62,2.86,10.59,10.59,0,0,0,1.7,2A16,16,0,0,0,92.74,81,3.7,3.7,0,0,0,94.07,81.29Z" transform="translate(-70.87 -39.69)"/><rect class="cls-2" x="0.95" y="0.95" width="36.36" height="69.72" rx="5.89"/><path class="cls-2" d="M79.67,41.68s-.47,3.42,2,3.42h16.6c2.47,0,2-3.42,2-3.42" transform="translate(-70.87 -39.69)"/></svg>